<svg xmlns="http://www.w3.org/2000/svg" id="OBJECT" viewBox="0 0 32 32" preserveAspectRatio="xMidYMid meet" style="width: 200px; height: 200px; transform-origin: 50% 50%; transform: scaleX(1) scaleY(1) rotate(0deg);"><title/><path d="M26,25H19.77V23h-2v2h-4V23h-2v2H6a1,1,0,0,0,0,2H26a1,1,0,0,0,0-2Z" fill="#0961DB" style="fill:#0961DB;stroke:none" stroke="none" class=""/><polygon points="20.5 15 19.43 11 12.57 11 11.5 15 20.5 15" fill="#0961DB" style="fill:#0961DB;stroke:none" stroke="none" class=""/><polygon points="10.5 11 3.53 11 2.39 15 9.43 15 10.5 11" fill="#0961DB" style="fill:#0961DB;stroke:none" stroke="none" class=""/><polygon points="22.57 15 29.61 15 28.47 11 21.5 11 22.57 15" fill="#0961DB" style="fill:#0961DB;stroke:none" stroke="none" class=""/><polygon points="10.96 17 9.89 21 22.11 21 21.04 17 10.96 17" fill="#0961DB" style="fill:#0961DB;stroke:none" stroke="none" class=""/><polygon points="17.82 5 14.18 5 13.11 9 18.89 9 17.82 5" fill="#0961DB" style="fill:#0961DB;stroke:none" stroke="none" class=""/><path d="M31,19.73,30.18,17H23.11l1.07,4H30a1,1,0,0,0,.8-.4A1,1,0,0,0,31,19.73Z" fill="#0961DB" style="fill:#0961DB;stroke:none" stroke="none" class=""/><path d="M27.9,9,27,5.73A1,1,0,0,0,26,5H19.89L21,9Z" fill="#0961DB" style="fill:#0961DB;stroke:none" stroke="none" class=""/><path d="M8.89,17H1.82L1,19.73a1,1,0,0,0,.16.87A1,1,0,0,0,2,21H7.82Z" fill="#0961DB" style="fill:#0961DB;stroke:none" stroke="none" class=""/><path d="M12.11,5H6a1,1,0,0,0-1,.73L4.1,9H11Z" fill="#0961DB" style="fill:#0961DB;stroke:none" stroke="none" class=""/></svg>