<svg xmlns="http://www.w3.org/2000/svg" xmlns:xlink="http://www.w3.org/1999/xlink" version="1.1" id="Layer_1" x="0px" y="0px" viewBox="0 0 24 24" enable-background="new 0 0 24 24" xml:space="preserve" preserveAspectRatio="xMidYMid meet" style="width: 200px; height: 200px; transform-origin: 50% 50%; transform: scaleX(1) scaleY(1) rotate(0deg);">
<g class="" style="fill:#006BFF">
	<path fill="#006BFF" d="M21.4269562,14.3608398c-0.0395508-0.0268555-3.9311523-2.6640625-5.2919922-3.6425781   l-2.1464853-2.8999023c-0.03125-0.4130859-0.1425781-1.8037109-0.5336914-6.5976563C13.3175802,0.5131836,12.7062521,0,12.001174,0   s-1.3164063,0.5131836-1.4614258,1.2753906c-0.3852539,4.7504883-0.4951172,6.1313477-0.5263672,6.5429688l-2.1459961,2.8999023   c-1.3603516,0.9785156-5.2529297,3.6162109-5.3393555,3.6791992c-0.5444335,0.472168-0.6831053,1.2583008-0.3305664,1.8691406   c0.3530273,0.6103516,1.1015625,0.8813477,1.8393555,0.6259766C4.0827169,16.8706055,8.5475607,14.7055664,10.1085958,14h0.3118286   l-1.4138794,9.4257813c-0.0214844,0.144043,0.0209961,0.2900391,0.1157227,0.4003906   C9.2174826,23.9365234,9.3556662,24,9.501174,24h5c0.1455078,0,0.2836914-0.0634766,0.3789063-0.1738281   c0.0947266-0.1103516,0.137207-0.2563477,0.1157227-0.4003906L13.5819235,14h0.3118286   c1.5610352,0.7055664,6.0273447,2.8710938,6.1274424,2.9155273c0.1635742,0.0566406,0.331543,0.0834961,0.4970703,0.0834961   c0.5219727,0,1.0185547-0.269043,1.2866211-0.7324219C22.1574249,15.6557617,22.0187531,14.8696289,21.4269562,14.3608398z"/>
	<polygon fill="#006BFF" points="13.9206076,23 10.0817404,23 11.4318991,14 12.5704489,14  "/>
	<polygon opacity="0.1" fill="#006BFF" points="12.5704489,14 12.001174,14 12.501174,23 13.9206076,23  "/>
	<path fill="#006BFF" d="M20.9386673,15.7666016c-0.1152267,0.2006836-0.3613205,0.2822266-0.5366135,0.2265625   c-0.1918945-0.0932617-4.7192392-2.2885742-6.1967783-2.949707C14.1413107,13.0146484,14.0714865,13,14.001174,13h-4   c-0.0703125,0-0.1401367,0.0146484-0.2041016,0.043457c-1.4775391,0.6611328-6.0048828,2.8564453-6.1411133,2.9267578   c-0.234375,0.0795898-0.4775391-0.003418-0.5922911-0.2036133c-0.1157167-0.2001953-0.0664003-0.4526367,0.0722716-0.5776367   c0.0405273-0.0273438,4.0683594-2.7573242,5.3798828-3.7055664c0.0415039-0.0302734,0.0786133-0.0664063,0.1088867-0.1079102   l2.2783203-3.078125c0.0576172-0.078125,0.0917969-0.1767578,0.0976563-0.2734375   c0.0102539-0.1767578,0.3901367-4.8730469,0.5283203-6.612793C11.575881,1.1689453,11.7702169,1,12.001174,1   s0.425293,0.1689453,0.4643555,0.3564453C12.6115255,3.1508789,12.9914083,7.847168,13.001174,8   c0,0.1069336,0.0341797,0.2114258,0.0981445,0.2973633l2.2783203,3.078125   c0.0302734,0.0415039,0.0673828,0.0776367,0.1088867,0.1079102c1.309083,0.9467773,5.3261728,3.6694336,5.3325205,3.6689453   C21.0050812,15.3139648,21.0543976,15.5664063,20.9386673,15.7666016z"/>
	<path fill="#006BFF" d="M12.001174,10c-0.5512695,0-1,0.4487305-1,1s0.4487305,1,1,1s1-0.4487305,1-1S12.5524435,10,12.001174,10z"/>
	<path fill="#006BFF" d="M12.0016623,11"/>
	<linearGradient id="SVGID_1_" gradientUnits="userSpaceOnUse" x1="4.8132925" y1="9.1822081" x2="21.488533" y2="16.9580002">
		<stop offset="0" style="stop-color:#FFFFFF;stop-opacity:0.2"/>
		<stop offset="1" style="stop-color:#FFFFFF;stop-opacity:0"/>
	</linearGradient>
	<path fill="url(#SVGID_1_)" d="M21.4269562,14.3608398c-0.0395508-0.0268555-3.9311523-2.6640625-5.2919922-3.6425781   l-2.1464853-2.8999023c-0.03125-0.4130859-0.1425781-1.8037109-0.5336914-6.5976563C13.3175802,0.5131836,12.7062521,0,12.001174,0   s-1.3164063,0.5131836-1.4614258,1.2753906c-0.3852539,4.7504883-0.4951172,6.1313477-0.5263672,6.5429688l-2.1459961,2.8999023   c-1.3603516,0.9785156-5.2529297,3.6162109-5.3393555,3.6791992c-0.5444335,0.472168-0.6831053,1.2583008-0.3305664,1.8691406   c0.3530273,0.6103516,1.1015625,0.8813477,1.8393555,0.6259766C4.0827169,16.8706055,8.5475607,14.7055664,10.1085958,14h0.3118286   l-1.4138794,9.4257813c-0.0214844,0.144043,0.0209961,0.2900391,0.1157227,0.4003906   C9.2174826,23.9365234,9.3556662,24,9.501174,24h5c0.1455078,0,0.2836914-0.0634766,0.3789063-0.1738281   c0.0947266-0.1103516,0.137207-0.2563477,0.1157227-0.4003906L13.5819235,14h0.3118286   c1.5610352,0.7055664,6.0273447,2.8710938,6.1274424,2.9155273c0.1635742,0.0566406,0.331543,0.0834961,0.4970703,0.0834961   c0.5219727,0,1.0185547-0.269043,1.2866211-0.7324219C22.1574249,15.6557617,22.0187531,14.8696289,21.4269562,14.3608398z"/>
</g>
<g class="" style="fill:#006BFF">
</g>
<g class="" style="fill:#006BFF">
</g>
<g class="" style="fill:#006BFF">
</g>
<g class="" style="fill:#006BFF">
</g>
<g class="" style="fill:#006BFF">
</g>
<g class="" style="fill:#006BFF">
</g>
<g class="" style="fill:#006BFF">
</g>
<g class="" style="fill:#006BFF">
</g>
<g class="" style="fill:#006BFF">
</g>
<g class="" style="fill:#006BFF">
</g>
<g class="" style="fill:#006BFF">
</g>
<g class="" style="fill:#006BFF">
</g>
<g class="" style="fill:#006BFF">
</g>
<g class="" style="fill:#006BFF">
</g>
<g class="" style="fill:#006BFF">
</g>
</svg>