<svg width="555" height="438" xmlns="http://www.w3.org/2000/svg" xmlns:xlink="http://www.w3.org/1999/xlink" xml:space="preserve" overflow="hidden"><g transform="translate(-68 -141)"><path d="M245.389 291.831 24.0055 291.831C15.0802 291.827 7.84829 284.588 7.85245 275.663 7.85347 273.395 8.33209 271.152 9.257 269.081L122.459 17.3373C124.972 11.4911 130.767 7.74144 137.129 7.84492L410.368 7.84492C416.588 7.85724 422.255 11.4218 424.959 17.0235L545.065 268.767C548.878 276.837 545.427 286.47 537.357 290.282 535.205 291.299 532.854 291.828 530.473 291.831L301.872 291.831" stroke="#156082" stroke-width="15.6902" stroke-linejoin="round" fill="none" transform="matrix(1 0 0 1.00058 68.2606 141)"/><path d="M408.406 78.8414 143.248 78.8414" stroke="#156082" stroke-width="15.6902" stroke-linejoin="round" fill="none" transform="matrix(1 0 0 1.00058 68.2606 141)"/><path d="M115.007 147.563 436.648 147.563" stroke="#156082" stroke-width="15.6902" stroke-linejoin="round" fill="none" transform="matrix(1 0 0 1.00058 68.2606 141)"/><path d="M85.1958 216.206 466.459 216.206" stroke="#156082" stroke-width="15.6902" stroke-linejoin="round" fill="none" transform="matrix(1 0 0 1.00058 68.2606 141)"/><path d="M220.285 42.9902 168.509 250.096" stroke="#156082" stroke-width="15.6902" stroke-linejoin="round" fill="none" transform="matrix(1 0 0 1.00058 68.2606 141)"/><path d="M342.666 42.9902 386.598 250.096" stroke="#156082" stroke-width="15.6902" stroke-linejoin="round" fill="none" transform="matrix(1 0 0 1.00058 68.2606 141)"/><path d="M245.389 291.831 245.389 359.297" stroke="#156082" stroke-width="15.6902" stroke-linejoin="round" fill="none" transform="matrix(1 0 0 1.00058 68.2606 141)"/><path d="M301.872 291.831 301.872 429.902" stroke="#156082" stroke-width="15.6902" stroke-linejoin="round" fill="none" transform="matrix(1 0 0 1.00058 68.2606 141)"/><path d="M130.853 429.902 416.408 429.902" stroke="#156082" stroke-width="15.6902" stroke-linejoin="round" fill="none" transform="matrix(1 0 0 1.00058 68.2606 141)"/><path d="M245.389 360.866 207.733 360.866" stroke="#156082" stroke-width="15.6902" stroke-linejoin="round" fill="none" transform="matrix(1 0 0 1.00058 68.2606 141)"/><path d="M339.528 360.866 301.872 360.866" stroke="#156082" stroke-width="15.6902" stroke-linejoin="round" fill="none" transform="matrix(1 0 0 1.00058 68.2606 141)"/></g></svg>